<?xml version="1.0" encoding="UTF-8"?>
<svg id="Layer_1" xmlns="http://www.w3.org/2000/svg" version="1.1" viewBox="0 0 360 180">
  <!-- Generator: Adobe Illustrator 29.5.1, SVG Export Plug-In . SVG Version: 2.1.0 Build 141)  -->
  <defs>
    <style>
      .st0 {
        fill: #3d5ccf;
      }

      .st1 {
        fill: #1b844a;
      }

      .st2 {
        fill: #ffca4d;
      }

      .st3 {
        fill: #062d4e;
      }
    </style>
  </defs>
  <g>
    <g>
      <path class="st3" d="M55.05,115.93c-4.44-2.02-7.95-4.78-10.53-8.27-2.59-3.49-3.96-7.39-4.13-11.69h15.25c.26,3.02,1.7,5.53,4.33,7.56,2.63,2.02,5.92,3.04,9.88,3.04s7.34-.8,9.63-2.39c2.28-1.59,3.42-3.64,3.42-6.14,0-2.67-1.27-4.65-3.81-5.94s-6.57-2.71-12.08-4.26c-5.34-1.46-9.69-2.89-13.05-4.26-3.36-1.38-6.27-3.49-8.72-6.33-2.46-2.84-3.68-6.59-3.68-11.24,0-3.79,1.12-7.26,3.36-10.4,2.24-3.14,5.45-5.62,9.63-7.43,4.18-1.81,8.98-2.71,14.41-2.71,8.1,0,14.62,2.05,19.58,6.14,4.95,4.09,7.6,9.67,7.95,16.73h-14.73c-.26-3.19-1.55-5.73-3.88-7.62-2.33-1.89-5.47-2.84-9.43-2.84s-6.85.73-8.92,2.2c-2.07,1.47-3.1,3.4-3.1,5.81,0,1.89.69,3.49,2.07,4.78,1.38,1.29,3.06,2.31,5.04,3.04,1.98.73,4.91,1.66,8.79,2.78,5.17,1.38,9.41,2.78,12.73,4.2,3.31,1.42,6.18,3.51,8.59,6.27,2.41,2.76,3.66,6.42,3.75,10.98,0,4.05-1.12,7.67-3.36,10.85-2.24,3.19-5.41,5.69-9.5,7.5-4.09,1.81-8.89,2.71-14.41,2.71s-10.62-1.01-15.05-3.04Z"/>
      <path class="st3" d="M156.21,48.93c4.44,2.33,7.9,5.77,10.4,10.34,2.5,4.57,3.75,10.08,3.75,16.54v41.99h-14.6v-39.8c0-6.37-1.6-11.26-4.78-14.66-3.19-3.4-7.54-5.1-13.05-5.1s-9.88,1.7-13.11,5.1c-3.23,3.4-4.84,8.29-4.84,14.66v39.8h-14.73V46.61h14.73v8.14c2.41-2.93,5.49-5.21,9.24-6.85,3.75-1.64,7.73-2.45,11.95-2.45,5.6,0,10.61,1.16,15.05,3.49Z"/>
      <path class="st3" d="M182.57,62.89c2.97-5.51,7.02-9.8,12.15-12.86,5.12-3.06,10.79-4.59,16.99-4.59,5.6,0,10.48,1.1,14.66,3.29,4.18,2.2,7.52,4.93,10.01,8.2v-10.34h14.86v71.19h-14.86v-10.59c-2.5,3.36-5.9,6.16-10.21,8.4-4.31,2.24-9.22,3.36-14.73,3.36-6.12,0-11.72-1.57-16.8-4.72-5.08-3.14-9.11-7.54-12.08-13.18-2.97-5.64-4.46-12.04-4.46-19.19s1.49-13.48,4.46-18.99ZM233.35,69.35c-2.02-3.62-4.67-6.37-7.95-8.27-3.28-1.89-6.81-2.84-10.59-2.84s-7.32.93-10.59,2.78c-3.28,1.85-5.92,4.57-7.95,8.14-2.02,3.57-3.04,7.82-3.04,12.73s1.01,9.22,3.04,12.92c2.02,3.7,4.7,6.53,8.01,8.46,3.31,1.94,6.82,2.91,10.53,2.91s7.32-.95,10.59-2.84c3.27-1.89,5.92-4.67,7.95-8.33,2.02-3.66,3.04-7.95,3.04-12.86s-1.01-9.17-3.04-12.79Z"/>
      <path class="st3" d="M287.29,48.8c4.31-2.24,9.17-3.36,14.6-3.36,6.2,0,11.87,1.53,16.99,4.59,5.12,3.06,9.15,7.34,12.08,12.86,2.93,5.51,4.39,11.84,4.39,18.99s-1.47,13.55-4.39,19.19c-2.93,5.64-6.96,10.04-12.08,13.18-5.13,3.15-10.79,4.72-16.99,4.72-5.43,0-10.25-1.1-14.47-3.29-4.22-2.2-7.67-4.93-10.34-8.21v44.19h-14.73V46.61h14.73v10.47c2.5-3.27,5.9-6.03,10.21-8.27ZM317.33,69.15c-2.02-3.57-4.7-6.29-8.01-8.14-3.32-1.85-6.87-2.78-10.66-2.78s-7.21.95-10.53,2.84c-3.32,1.89-5.99,4.65-8.01,8.27-2.02,3.62-3.04,7.88-3.04,12.79s1.01,9.2,3.04,12.86c2.02,3.66,4.69,6.44,8.01,8.33,3.31,1.9,6.82,2.84,10.53,2.84s7.34-.97,10.66-2.91c3.31-1.94,5.99-4.76,8.01-8.46,2.02-3.7,3.04-8.01,3.04-12.92s-1.01-9.15-3.04-12.73Z"/>
    </g>
    <g>
      <circle class="st1" cx="42.56" cy="40.59" r="4.73"/>
      <path class="st3" d="M24.47,72.15c-1.56-.08-3.02-1.01-3.7-2.54-.96-2.16.01-4.69,2.17-5.65l5.61-2.49c2.16-.95,4.69.01,5.65,2.17.96,2.16-.01,4.69-2.17,5.65l-5.61,2.5c-.63.28-1.3.4-1.95.36Z"/>
      <path class="st2" d="M56.38,39.92c-.19,0-.38-.03-.57-.07-2.32-.43-3.86-2.66-3.44-4.98l2.19-11.91c.43-2.33,2.66-3.86,4.98-3.44,2.32.43,3.86,2.66,3.44,4.98l-2.19,11.91c-.39,2.13-2.3,3.61-4.41,3.5Z"/>
      <path class="st0" d="M33.39,55.79c-.46-.02-.93-.12-1.38-.3l-14.07-5.64c-2.19-.88-3.26-3.37-2.38-5.57.88-2.19,3.37-3.26,5.56-2.38l14.07,5.64c2.19.88,3.26,3.37,2.38,5.57-.7,1.74-2.41,2.77-4.18,2.68Z"/>
      <path class="st1" d="M34.45,34.44c-1.27-.06-2.5-.69-3.29-1.81l-5.03-7.15c-1.36-1.93-.9-4.6,1.04-5.96,1.93-1.36,4.6-.89,5.96,1.04l5.03,7.15c1.36,1.93.9,4.6-1.04,5.96-.81.57-1.75.82-2.67.77Z"/>
    </g>
    <g>
      <path class="st1" d="M76.77,142.79h-4.01v18.12h-7.45v-18.12h-2.7v-6.18h2.7v-.7c0-2.99.86-5.26,2.57-6.81,1.71-1.55,4.22-2.33,7.53-2.33.55,0,.96.01,1.22.04v6.32c-1.42-.09-2.42.12-3,.61-.58.49-.87,1.38-.87,2.66v.22h4.01v6.18Z"/>
      <path class="st1" d="M85.41,132.93c-.83-.77-1.24-1.72-1.24-2.85s.41-2.13,1.24-2.89c.83-.77,1.89-1.15,3.2-1.15s2.33.38,3.16,1.15c.83.77,1.24,1.73,1.24,2.89s-.41,2.08-1.24,2.85c-.83.77-1.88,1.15-3.16,1.15s-2.37-.38-3.2-1.15ZM92.31,136.61v24.3h-7.45v-24.3h7.45Z"/>
      <path class="st1" d="M122.82,139.11c1.7,1.84,2.55,4.38,2.55,7.6v14.2h-7.4v-13.2c0-1.62-.42-2.89-1.26-3.79-.84-.9-1.97-1.35-3.4-1.35s-2.55.45-3.4,1.35-1.26,2.16-1.26,3.79v13.2h-7.45v-24.3h7.45v3.22c.75-1.07,1.77-1.92,3.05-2.55,1.28-.62,2.71-.94,4.31-.94,2.84,0,5.12.92,6.81,2.76Z"/>
      <path class="st1" d="M133.57,142.14c.94-1.89,2.23-3.34,3.85-4.35s3.44-1.52,5.44-1.52c1.71,0,3.21.35,4.51,1.04,1.29.7,2.29,1.61,2.98,2.74v-3.44h7.45v24.3h-7.45v-3.44c-.73,1.13-1.73,2.05-3.03,2.74-1.29.7-2.8,1.05-4.51,1.05-1.97,0-3.77-.52-5.4-1.55s-2.91-2.5-3.85-4.4c-.94-1.9-1.42-4.1-1.42-6.6s.47-4.69,1.42-6.58ZM148.81,144.36c-1.03-1.07-2.29-1.61-3.77-1.61s-2.74.53-3.77,1.59c-1.03,1.06-1.55,2.52-1.55,4.38s.52,3.33,1.55,4.42,2.29,1.63,3.77,1.63,2.73-.54,3.77-1.61c1.03-1.07,1.55-2.54,1.55-4.4s-.52-3.32-1.55-4.4Z"/>
      <path class="st1" d="M188.01,139.11c1.7,1.84,2.55,4.38,2.55,7.6v14.2h-7.4v-13.2c0-1.62-.42-2.89-1.26-3.79-.84-.9-1.97-1.35-3.4-1.35s-2.55.45-3.4,1.35-1.26,2.16-1.26,3.79v13.2h-7.45v-24.3h7.45v3.22c.75-1.07,1.77-1.92,3.05-2.55,1.28-.62,2.71-.94,4.31-.94,2.84,0,5.12.92,6.81,2.76Z"/>
      <path class="st1" d="M198.89,142.14c1.03-1.89,2.47-3.34,4.31-4.35,1.84-1.02,3.96-1.52,6.34-1.52,3.05,0,5.6.8,7.64,2.39,2.05,1.6,3.39,3.85,4.03,6.75h-7.93c-.67-1.86-1.96-2.79-3.88-2.79-1.36,0-2.45.53-3.26,1.59-.81,1.06-1.22,2.58-1.22,4.55s.41,3.49,1.22,4.55c.81,1.06,1.9,1.59,3.26,1.59,1.92,0,3.21-.93,3.88-2.79h7.93c-.64,2.84-1.99,5.08-4.05,6.71-2.06,1.63-4.6,2.44-7.62,2.44-2.38,0-4.49-.51-6.34-1.52-1.84-1.02-3.28-2.47-4.31-4.36-1.03-1.89-1.55-4.09-1.55-6.62s.52-4.73,1.55-6.62Z"/>
      <path class="st1" d="M251.52,150.54h-16.85c.12,1.51.6,2.67,1.46,3.46.86.8,1.91,1.2,3.16,1.2,1.86,0,3.15-.78,3.87-2.35h7.93c-.41,1.6-1.14,3.03-2.2,4.31s-2.39,2.28-3.98,3c-1.6.73-3.38,1.09-5.36,1.09-2.38,0-4.5-.51-6.36-1.52-1.86-1.02-3.31-2.47-4.35-4.36-1.05-1.89-1.57-4.09-1.57-6.62s.52-4.73,1.55-6.62c1.03-1.89,2.47-3.34,4.33-4.35,1.86-1.02,3.99-1.52,6.4-1.52s4.44.49,6.27,1.48c1.83.99,3.26,2.39,4.29,4.22,1.03,1.83,1.55,3.96,1.55,6.4,0,.7-.04,1.42-.13,2.18ZM244.03,146.41c0-1.28-.44-2.29-1.31-3.05-.87-.75-1.96-1.13-3.27-1.13s-2.3.36-3.16,1.09c-.86.73-1.39,1.76-1.59,3.09h9.32Z"/>
    </g>
  </g>
  <path class="st3" d="M334.04,46.6c1.08-.61,2.28-.92,3.59-.92s2.55.31,3.63.92c1.08.61,1.93,1.45,2.55,2.52s.94,2.26.94,3.57-.31,2.5-.94,3.56-1.48,1.89-2.55,2.5c-1.08.61-2.29.92-3.63.92s-2.51-.31-3.59-.92c-1.08-.61-1.93-1.45-2.55-2.5-.62-1.06-.94-2.23-.94-3.52s.31-2.51.94-3.59c.62-1.08,1.48-1.92,2.55-2.54ZM340.51,47.78c-.85-.49-1.81-.73-2.88-.73s-1.99.24-2.84.73-1.52,1.16-1.99,2.03-.71,1.84-.71,2.93.24,2.03.71,2.88c.48.85,1.14,1.52,1.99,1.99.85.48,1.8.71,2.84.71s2.03-.24,2.88-.73,1.52-1.16,1.99-2.01c.48-.85.71-1.81.71-2.88s-.24-2.03-.71-2.89-1.14-1.54-1.99-2.03ZM340.12,49.5c.54.45.82,1.04.82,1.77,0,.57-.16,1.04-.48,1.43-.32.39-.76.66-1.33.82l1.84,3.06h-1.67l-1.63-2.76h-1.19v2.76h-1.5v-7.76h2.96c.91,0,1.63.23,2.18.68ZM337.87,52.56c.43,0,.79-.11,1.07-.34.28-.23.43-.54.43-.95,0-.39-.14-.68-.41-.89-.27-.2-.64-.31-1.09-.31h-1.4v2.49h1.4Z"/>
</svg>